<svg xmlns="http://www.w3.org/2000/svg" xmlns:xlink="http://www.w3.org/1999/xlink" width="1080" zoomAndPan="magnify" viewBox="0 0 810 787.499972" height="1050" preserveAspectRatio="xMidYMid meet" version="1.0"><defs><clipPath id="b8974da058"><path d="M 508.066406 642 L 625.351562 642 L 625.351562 728.71875 L 508.066406 728.71875 Z M 508.066406 642 " clip-rule="nonzero"/></clipPath><clipPath id="a9baab1cd4"><path d="M 483 540.585938 L 543 540.585938 L 543 635 L 483 635 Z M 483 540.585938 " clip-rule="nonzero"/></clipPath><clipPath id="3b9e776b62"><path d="M 441.507812 633.957031 L 634.886719 633.957031 L 634.886719 650.144531 L 441.507812 650.144531 Z M 441.507812 633.957031 " clip-rule="nonzero"/></clipPath><clipPath id="66a5800001"><path d="M 278.429688 423.3125 L 768.617188 423.3125 L 768.617188 786.894531 L 278.429688 786.894531 Z M 278.429688 423.3125 " clip-rule="nonzero"/></clipPath><clipPath id="23ed46aea3"><path d="M 0.257812 390.230469 L 809.726562 390.230469 L 809.726562 457.894531 L 0.257812 457.894531 Z M 0.257812 390.230469 " clip-rule="nonzero"/></clipPath></defs><path fill="#50bc50" d="M 518.589844 667.574219 C 525.660156 660.925781 522.847656 649.644531 516.898438 642 L 451.484375 642 C 451.484375 677.464844 472.75 707.941406 503.214844 721.4375 C 497.976562 691.179688 512.703125 673.109375 518.589844 667.574219 " fill-opacity="1" fill-rule="nonzero"/><g clip-path="url(#b8974da058)"><path fill="#50bc50" d="M 584.6875 642 C 578.726562 651.207031 568.136719 663.367188 551.273438 669.640625 C 526.203125 678.960938 500.519531 684.761719 510.140625 724.152344 C 518.988281 727.191406 528.46875 728.863281 538.347656 728.863281 C 586.324219 728.863281 625.210938 689.972656 625.210938 642 L 584.6875 642 " fill-opacity="1" fill-rule="nonzero"/></g><g clip-path="url(#a9baab1cd4)"><path fill="#87d889" d="M 522.863281 609.28125 C 517.402344 600.363281 512.613281 590.546875 511.820312 582.546875 C 511.820312 582.546875 517.992188 591.65625 525.859375 601.46875 C 529.351562 593.9375 534.785156 586.054688 542.964844 578.222656 C 534.644531 564.726562 519.035156 550.867188 490.515625 540.59375 C 490.515625 540.59375 475.214844 576.558594 490.65625 604.34375 L 490.652344 604.34375 C 496.433594 617.234375 506.949219 627.132812 520.828125 634.679688 C 519.855469 627.730469 519.890625 618.945312 522.863281 609.28125 " fill-opacity="1" fill-rule="nonzero"/></g><path fill="#87d889" d="M 586.179688 566.140625 C 507.621094 594.433594 526.976562 649.984375 526.976562 649.984375 C 540.617188 643.90625 564.878906 608.089844 564.878906 608.089844 C 563.417969 622.820312 548.441406 643.722656 540.597656 653.777344 C 540.417969 653.976562 530.667969 664.804688 524.886719 667.980469 C 512.03125 675.050781 512.402344 682.125 511.796875 685.203125 C 511.78125 685.292969 511.761719 685.367188 511.75 685.429688 C 512.34375 683.789062 516.484375 675.34375 535.542969 668.933594 C 559.5 660.878906 577.699219 648.496094 586.042969 629.890625 C 601.484375 602.101562 586.179688 566.140625 586.179688 566.140625 " fill-opacity="1" fill-rule="nonzero"/><g clip-path="url(#3b9e776b62)"><path fill="#50bc50" d="M 627.15625 633.964844 L 589.238281 633.964844 C 587.398438 637.753906 584.019531 643.785156 578.722656 650.03125 L 627.15625 650.03125 C 631.59375 650.03125 635.1875 646.433594 635.1875 642 C 635.1875 637.5625 631.59375 633.964844 627.15625 633.964844 Z M 521.359375 650.03125 L 449.542969 650.03125 C 445.105469 650.03125 441.507812 646.433594 441.507812 642 C 441.507812 637.5625 445.105469 633.964844 449.542969 633.964844 L 504.960938 633.964844 C 509.25 635.683594 513.523438 637.984375 516.046875 640.933594 C 518.296875 643.570312 520.164062 646.734375 521.359375 650.03125 " fill-opacity="1" fill-rule="nonzero"/></g><path fill="#50bc50" d="M 322.402344 530.742188 C 351.960938 502.957031 340.199219 455.804688 315.339844 423.851562 L 41.949219 423.851562 C 41.949219 572.074219 130.820312 699.457031 258.152344 755.867188 C 236.257812 629.394531 297.800781 553.871094 322.402344 530.742188 " fill-opacity="1" fill-rule="nonzero"/><g clip-path="url(#66a5800001)"><path fill="#50bc50" d="M 598.671875 423.851562 C 573.746094 462.339844 529.488281 513.164062 459.003906 539.371094 C 354.234375 578.324219 246.890625 602.570312 287.089844 767.203125 C 324.074219 779.902344 363.707031 786.894531 404.992188 786.894531 C 605.496094 786.894531 768.03125 624.347656 768.03125 423.851562 L 598.671875 423.851562 " fill-opacity="1" fill-rule="nonzero"/></g><path fill="#87d889" d="M 340.273438 287.101562 C 317.445312 249.828125 297.433594 208.804688 294.121094 175.371094 C 294.121094 175.371094 319.917969 213.453125 352.800781 254.457031 C 367.382812 222.976562 390.101562 190.03125 424.289062 157.296875 C 389.503906 100.890625 324.269531 42.960938 205.082031 0.0351562 C 205.082031 0.0351562 141.125 150.34375 205.660156 266.46875 L 205.652344 266.46875 C 229.808594 320.34375 273.765625 361.710938 331.761719 393.253906 C 327.699219 364.222656 327.84375 327.492188 340.273438 287.101562 " fill-opacity="1" fill-rule="nonzero"/><path fill="#87d889" d="M 604.90625 106.804688 C 276.574219 225.046875 357.460938 457.230469 357.460938 457.230469 C 414.476562 431.816406 515.867188 282.132812 515.867188 282.132812 C 509.769531 343.691406 447.171875 431.050781 414.394531 473.070312 C 413.636719 473.910156 372.894531 519.171875 348.730469 532.445312 C 295.007812 561.992188 296.554688 591.554688 294.023438 604.417969 C 293.949219 604.796875 293.878906 605.101562 293.820312 605.375 C 296.300781 598.511719 313.617188 563.210938 393.273438 536.417969 C 493.390625 502.757812 569.460938 451.003906 604.332031 373.238281 C 668.863281 257.105469 604.90625 106.804688 604.90625 106.804688 " fill-opacity="1" fill-rule="nonzero"/><g clip-path="url(#23ed46aea3)"><path fill="#50bc50" d="M 776.160156 390.273438 L 617.6875 390.273438 C 610 406.105469 595.871094 431.316406 573.734375 457.425781 L 776.160156 457.425781 C 794.707031 457.425781 809.726562 442.386719 809.726562 423.851562 C 809.726562 405.308594 794.707031 390.273438 776.160156 390.273438 Z M 333.988281 457.425781 L 33.832031 457.425781 C 15.28125 457.425781 0.257812 442.386719 0.257812 423.851562 C 0.257812 405.308594 15.28125 390.273438 33.832031 390.273438 L 265.441406 390.273438 C 283.382812 397.449219 301.242188 407.074219 311.773438 419.394531 C 321.191406 430.414062 328.992188 443.644531 333.988281 457.425781 " fill-opacity="1" fill-rule="nonzero"/></g></svg>